<svg id="S1IW_t8TvEG" data-name="Camada 1" xmlns="http://www.w3.org/2000/svg" viewBox="0 0 889.07 351.69">
    <style>
        #Syub_KIpP4G{fill: #4b4b4d;transform:  translate(-38.82px, -38.6px);}#B1qZ_YU6v4G{fill: #4b4b4d;transform:  translate(-38.82px, -38.6px);}#Sy2-OKL6w4z{fill: #00afef;transform:  translate(-38.82px, -38.6px);}#BJAZuFLTw4f{fill: none;stroke: #00afef;stroke-miterlimit: 22.926;stroke-width: 2.36px;}#HykMuYLavVG{fill: none;stroke: #00afef;stroke-miterlimit: 22.926;stroke-width: 2.36px;}#BkxzOKLpw4z{fill: none;stroke: #00afef;stroke-miterlimit: 22.926;stroke-width: 2.36px;}#rJbzdFL6DVz{fill: none;stroke: #00afef;stroke-miterlimit: 22.926;stroke-width: 2.36px;}

	@keyframes SkiZdFITvEGAnimation {
		0% {
			opacity: 1;
		}
		50% {
			opacity: 0;
		}
		100% {
			opacity: 1;
		}
	}

	#SkiZdFITvEG {
		transform-origin: 50% 50% !important;
		animation: SkiZdFITvEGAnimation 10s infinite linear;
	}
    </style>
    <svg id="S1IW_t8TvEG" data-name="Camada 1" xmlns="http://www.w3.org/2000/svg" viewBox="0 0 889.07 351.69">
        <defs>
        </defs>
        <title>
            LOGO MIXED1
        </title>
        <g id="SyPZOFLTwEz">
            <path class="cls-1" d="M146.5,390.29H128.62V328.77h24.07l8.51,30.7c.12.42.35,1.37.67,2.86s.82,3.55,1.43,6.16c.38-2.06.74-3.87,1.08-5.41s.63-2.71.87-3.49l8.73-30.82h24.03v61.52H180.13l.17-30.27c0-1.84,0-3.64.01-5.38s.04-3.54.07-5.4q-1,4.77-2.42,10.39l-.13.54-7.6,30.12H156.44l-7.68-29.45c-.36-1.34-.73-2.86-1.09-4.59s-.84-4.06-1.42-7.01q.12,3.975.2,6.8c.04,1.89.05,3.42.05,4.56v29.69Zm63.47,0V328.77h20.11v61.52Zm25.74,0,21.15-31.99-19.27-29.53h22.23l8.23,15.58,8.98-15.58h21.74L278.83,358.3l20.62,31.99H277.12l-9.31-16.67-9.37,16.67H235.71Zm68.96,0V328.77h49.18v14.72H324.43v8.21H349.3v14.12H324.43v9.5h30.63v14.97H304.67Zm79.38-15.57h5.31c4.92,0,8.32-1.1,10.23-3.3s2.86-6.14,2.86-11.83c0-5.53-.97-9.47-2.93-11.78q-2.91-3.465-9.92-3.46h-5.55v30.37Zm-19.76,15.57V328.77h23.9a81.049,81.049,0,0,1,13.54.82,24.423,24.423,0,0,1,7.75,2.69,23.848,23.848,0,0,1,9.61,10.57q3.21,6.795,3.21,16.74,0,10.455-4,17.57a24.471,24.471,0,0,1-11.75,10.58,25.862,25.862,0,0,1-7.53,1.96,126.3,126.3,0,0,1-14.51.59H364.29Zm114.76-35.08h8.97q4.725,0,6.51-1.28c1.2-.84,1.8-2.33,1.8-4.45,0-2.18-.6-3.7-1.8-4.54s-3.53-1.28-7.01-1.28h-8.47v11.55Zm-19.51,35.08V328.77h29.43q13.845,0,19.75,4.14,5.925,4.125,5.92,13.57a16.807,16.807,0,0,1-2.43,9.36,16.233,16.233,0,0,1-7.48,5.89c3.44.71,5.93,2.15,7.48,4.28,1.57,2.12,2.4,5.24,2.51,9.36l.35,8.57a1.5,1.5,0,0,0,.02.2c.09,2.46.69,3.74,1.77,3.85v2.3H496.91c-.37-1.48-.64-2.77-.82-3.87a15.628,15.628,0,0,1-.27-2.56v-6.15c0-3.16-.63-5.4-1.89-6.7-1.24-1.3-3.4-1.94-6.5-1.94h-8.38v21.22H459.54Zm65.29,0V328.77h49.19v14.72H544.6v8.21h24.87v14.12H544.6v9.5h30.63v14.97Zm78.96-21.05h12.4l-6.13-21.3Zm-25.41,21.05,21.64-61.52h20.02l21.65,61.52H622.1l-2.31-8.13h-19.6l-2.38,8.13H578.38Zm68.94,0V328.77h19.77v45.18h26.86v16.34Zm55.03,0V328.77h20.11v61.52Zm45.07,0V344.94H729.71V328.77H784.9v16.17H767.19v45.35H747.42Zm59.98,0V367.53l-22.67-38.76h21.91l10.63,20.96,10.69-20.96h21.28l-22.08,38.76v22.76Z" id="Syub_KIpP4G"/>
        </g>
        <g id="H1Y-uKITPVf">
            <path class="cls-1" d="M414.31,244.29V151.87H399.47V124.88h14.84v-7.46q0-19.965,9.94-29.42t30.92-9.45h26.61v29.91c-.6,0-1.42-.04-2.51-.11-1.12-.08-1.91-.11-2.44-.11-5.81,0-9.82.97-12.1,2.88-2.29,1.95-3.41,5.33-3.41,10.16,0,.34.03.9.11,1.69.07.75.11,1.38.11,1.91h20.24v26.99H461.54v92.42H414.31ZM576.76,191a177.239,177.239,0,0,1-18.1,5.62c-11.85,3.15-17.77,7.34-17.77,12.63a9.594,9.594,0,0,0,3.52,7.91c2.33,1.91,5.66,2.85,9.97,2.85q11.865,0,17.28-5.51c3.64-3.64,5.44-9.49,5.44-17.47,0-1.69,0-2.92-.04-3.79a13.2,13.2,0,0,0-.3-2.24Zm4.38,53.29-2.96-11.43a61.169,61.169,0,0,1-19.64,11.85,68.581,68.581,0,0,1-23.72,3.86q-20.19,0-31.26-9.94-11.025-9.945-11.02-28.07c0-11.81,3.63-20.5,10.87-26.16,7.23-5.62,20.95-9.75,41.08-12.3,2.55-.37,6-.75,10.31-1.2q22.53-2.415,22.52-11.65a8.065,8.065,0,0,0-4.12-7.5q-4.11-2.355-13.01-2.36-7.365,0-11.32,2.92-3.93,2.925-4.61,9H497.94q.33-20.13,16.45-30.44,16.14-10.275,47.45-10.27a125.835,125.835,0,0,1,27.18,2.74c8.28,1.84,14.76,4.31,19.37,7.38,5.63,3.83,9.6,8.1,11.85,12.94q3.42,7.185,3.41,20.61v66.49a13.022,13.022,0,0,0,1.31,5.89,10.96,10.96,0,0,0,3.86,4.23v3.41H581.14Zm149.55-46.55h47.46q-1.53,23.61-18.82,37.22-17.31,13.6-45.95,13.61-31.71,0-50.15-17.24-18.45-17.265-18.44-46.89,0-29.685,18.21-46.74,18.225-17.1,49.93-17.1,28.785,0,46.33,13.46,17.535,13.5,18.44,36.25H730.25c-.53-5.66-2.22-9.86-5.06-12.56-2.85-2.74-7.01-4.09-12.52-4.09q-10.29,0-15.15,7.42c-3.22,4.95-4.83,12.71-4.83,23.36q0,16.125,4.68,23.61c3.12,4.98,8.06,7.46,14.88,7.46,5.48,0,9.79-1.5,12.9-4.5s4.95-7.42,5.54-13.27ZM838.83,171.2h42.28c-.53-7.42-2.55-13-6.15-16.71s-8.73-5.55-15.48-5.55c-6.22,0-11.17,1.95-14.77,5.89-3.63,3.93-5.58,9.4-5.88,16.37Zm39.8,37.79h45.43q-4.95,19.5-21.66,29.53-16.755,10.065-44.19,10.05-30.7,0-48.77-17.09-18.045-17.04-18.06-45.96,0-30.075,18.44-47.52,18.435-17.385,50.15-17.4,31.815,0,49.85,18.97,18.045,18.945,18.07,52.63v2.84l-89.06.12c.22,7.57,2.25,13.41,6.03,17.54q5.745,6.18,15.97,6.18a23.738,23.738,0,0,0,11.54-2.55,13.024,13.024,0,0,0,6.26-7.34Z" id="B1qZ_YU6v4G"/>
        </g>
        <g id="SkiZdFITvEG">
            <path class="cls-2" d="M83.24,115.13V80.95h47.9v34.18Zm0,131.56V127.27h47.9V246.69Zm77.32,0V85h49.25l45.39,75.18a55.123,55.123,0,0,1,4.46,9c1.58,3.9,3.22,8.58,4.99,14.05-.45-2.84-.75-5.99-.98-9.44-.22-3.41-.34-7.61-.34-12.52V85h49.48V246.69H263.33l-45.39-74.66a62.454,62.454,0,0,1-4.57-9.3c-1.65-4.05-3.3-8.66-4.98-13.87a83.791,83.791,0,0,1,1.08,8.96c.23,3.11.34,7.5.34,13.12v75.75H160.56Z" id="Sy2-OKL6w4z"/>
            <g id="H1TbdK8avVM" data-name=" 2215184741376">
                <line class="cls-3" x1="1.18" y1="249.28" x2="1.18" y2="1.18" id="BJAZuFLTw4f"/>
                <line class="cls-3" x1="316.09" y1="249.28" x2="316.09" y2="1.18" id="HykMuYLavVG"/>
                <line class="cls-3" x1="1.18" y1="249.28" x2="316.09" y2="249.28" id="BkxzOKLpw4z"/>
                <line class="cls-3" x1="1.18" y1="1.18" x2="316.09" y2="1.18" id="rJbzdFL6DVz"/>
            </g>
        </g>
    </svg>
</svg>